<svg height="280" overflow="visible" preserveAspectRatio="xMidYMid meet" version="1.0" width="1024" xmlns:xlink="http://www.w3.org/1999/xlink" xmlns="http://www.w3.org/2000/svg" zoomAndPan="magnify"><g><polyline points="0.0,140.0,10.0,140.0" style="fill:white;stroke:black;stroke-width:2"></polyline><polyline points="505.58,50.0,10.0,50.0,10.0,190.0,505.58,190.0" style="fill:white;stroke:black;stroke-width:2"></polyline><polyline points="516.67,10.0,505.58,10.0,505.58,60.0,516.67,60.0" style="fill:white;stroke:black;stroke-width:2"></polyline><text font-family="sans-serif" x="521" y="14">2012-05-28</text><polyline points="524.58,50.0,516.67,50.0,516.67,90.0,524.58,90.0" style="fill:white;stroke:black;stroke-width:2"></polyline><polyline points="527.75,40.0,524.58,40.0,524.58,70.0,527.75,70.0" style="fill:white;stroke:black;stroke-width:2"></polyline><polyline points="529.33,30.0,527.75,30.0,527.75,50.0,529.33,50.0" style="fill:white;stroke:black;stroke-width:2"></polyline><text font-family="sans-serif" x="534" y="34">2012-06-06</text><text font-family="sans-serif" x="534" y="54">2012-06-07</text><text font-family="sans-serif" x="532" y="74">2012-06-09</text><text font-family="sans-serif" x="529" y="94">2012-06-02</text><polyline points="803.25,130.0,505.58,130.0,505.58,220.0,803.25,220.0" style="fill:white;stroke:black;stroke-width:2"></polyline><polyline points="834.92,110.0,803.25,110.0,803.25,140.0,834.92,140.0" style="fill:white;stroke:black;stroke-width:2"></polyline><text font-family="sans-serif" x="839" y="114">2013-01-16</text><polyline points="838.08,130.0,834.92,130.0,834.92,150.0,838.08,150.0" style="fill:white;stroke:black;stroke-width:2"></polyline><text font-family="sans-serif" x="843" y="134">2012-12-26</text><text font-family="sans-serif" x="843" y="154">2012-12-28</text><polyline points="841.25,170.0,803.25,170.0,803.25,230.0,841.25,230.0" style="fill:white;stroke:black;stroke-width:2"></polyline><text font-family="sans-serif" x="846" y="174">2013-07-01</text><polyline points="863.42,210.0,841.25,210.0,841.25,260.0,863.42,260.0" style="fill:white;stroke:black;stroke-width:2"></polyline><polyline points="877.67,200.0,863.42,200.0,863.42,230.0,877.67,230.0" style="fill:white;stroke:black;stroke-width:2"></polyline><polyline points="884.0,190.0,877.67,190.0,877.67,210.0,884.0,210.0" style="fill:white;stroke:black;stroke-width:2"></polyline><text font-family="sans-serif" x="888" y="194">2013-07-21</text><text font-family="sans-serif" x="888" y="214">2013-07-25</text><text font-family="sans-serif" x="882" y="234">2013-07-14</text><polyline points="868.17,250.0,863.42,250.0,863.42,270.0,868.17,270.0" style="fill:white;stroke:black;stroke-width:2"></polyline><text font-family="sans-serif" x="873" y="254">2013-07-31</text><text font-family="sans-serif" x="873" y="274">2013-08-03</text></g></svg>