<svg height="320" overflow="visible" preserveAspectRatio="xMidYMid meet" version="1.0" width="1024" xmlns:xlink="http://www.w3.org/1999/xlink" xmlns="http://www.w3.org/2000/svg" zoomAndPan="magnify"><g><polyline points="0.0,160.0,10.0,160.0" style="fill:none;stroke:black;stroke-width:2"></polyline><polyline points="209.03,50.0,10.0,50.0,10.0,210.0,209.03,210.0" style="fill:none;stroke:black;stroke-width:2"></polyline><polyline points="336.98,10.0,209.03,10.0,209.03,60.0,336.98,60.0" style="fill:none;stroke:black;stroke-width:2"></polyline><text font-family="sans-serif" x="341" y="14">ATL</text><polyline points="428.11,50.0,336.98,50.0,336.98,90.0,428.11,90.0" style="fill:none;stroke:black;stroke-width:2"></polyline><polyline points="483.32,30.0,428.11,30.0,428.11,60.0,483.32,60.0" style="fill:none;stroke:black;stroke-width:2"></polyline><text font-family="sans-serif" x="488" y="34">PHI</text><polyline points="528.99,50.0,483.32,50.0,483.32,70.0,528.99,70.0" style="fill:none;stroke:black;stroke-width:2"></polyline><text font-family="sans-serif" x="533" y="54">MIL</text><text font-family="sans-serif" x="533" y="74">SDP</text><text font-family="sans-serif" x="433" y="94">MIA</text><polyline points="386.52,200.0,209.03,200.0,209.03,310.0,386.52,310.0" style="fill:none;stroke:black;stroke-width:2"></polyline><polyline points="525.41,190.0,386.52,190.0,386.52,290.0,525.41,290.0" style="fill:none;stroke:black;stroke-width:2"></polyline><polyline points="638.77,130.0,525.41,130.0,525.41,220.0,638.77,220.0" style="fill:none;stroke:black;stroke-width:2"></polyline><polyline points="750.36,110.0,638.77,110.0,638.77,140.0,750.36,140.0" style="fill:none;stroke:black;stroke-width:2"></polyline><text font-family="sans-serif" x="755" y="114">SFG</text><polyline points="824.18,130.0,750.36,130.0,750.36,150.0,824.18,150.0" style="fill:none;stroke:black;stroke-width:2"></polyline><text font-family="sans-serif" x="829" y="134">ARI</text><text font-family="sans-serif" x="829" y="154">PIT</text><polyline points="727.03,200.0,638.77,200.0,638.77,260.0,727.03,260.0" style="fill:none;stroke:black;stroke-width:2"></polyline><polyline points="792.47,190.0,727.03,190.0,727.03,230.0,792.47,230.0" style="fill:none;stroke:black;stroke-width:2"></polyline><polyline points="841.38,170.0,792.47,170.0,792.47,200.0,841.38,200.0" style="fill:none;stroke:black;stroke-width:2"></polyline><text font-family="sans-serif" x="846" y="174">NYM</text><polyline points="884.0,190.0,841.38,190.0,841.38,210.0,884.0,210.0" style="fill:none;stroke:black;stroke-width:2"></polyline><text font-family="sans-serif" x="889" y="194">STL</text><text font-family="sans-serif" x="889" y="214">LgAvg</text><text font-family="sans-serif" x="797" y="234">CIN</text><polyline points="789.38,250.0,727.03,250.0,727.03,270.0,789.38,270.0" style="fill:none;stroke:black;stroke-width:2"></polyline><text font-family="sans-serif" x="794" y="254">WSN</text><text font-family="sans-serif" x="794" y="274">LAD</text><text font-family="sans-serif" x="530" y="294">COL</text><text font-family="sans-serif" x="391" y="314">CHC</text></g></svg>