<svg height="360" overflow="visible" preserveAspectRatio="xMidYMid meet" version="1.0" width="1024" xmlns:xlink="http://www.w3.org/1999/xlink" xmlns="http://www.w3.org/2000/svg" zoomAndPan="magnify"><g><polyline points="0.0,180.0,10.0,180.0" style="fill:none;stroke:black;stroke-width:2"></polyline><polyline points="272.59,30.0,10.0,30.0,10.0,210.0,272.59,210.0" style="fill:none;stroke:black;stroke-width:2"></polyline><polyline points="356.68,10.0,272.59,10.0,272.59,40.0,356.68,40.0" style="fill:none;stroke:black;stroke-width:2"></polyline><text font-family="sans-serif" x="361" y="14">Inverness</text><polyline points="397.21,30.0,356.68,30.0,356.68,50.0,397.21,50.0" style="fill:none;stroke:black;stroke-width:2"></polyline><text font-family="sans-serif" x="402" y="34">Glasgow</text><text font-family="sans-serif" x="402" y="54">Edinburgh</text><polyline points="427.67,170.0,272.59,170.0,272.59,320.0,427.67,320.0" style="fill:none;stroke:black;stroke-width:2"></polyline><polyline points="581.82,130.0,427.67,130.0,427.67,240.0,581.82,240.0" style="fill:none;stroke:black;stroke-width:2"></polyline><polyline points="682.28,110.0,581.82,110.0,581.82,180.0,682.28,180.0" style="fill:none;stroke:black;stroke-width:2"></polyline><polyline points="785.85,70.0,682.28,70.0,682.28,120.0,785.85,120.0" style="fill:none;stroke:black;stroke-width:2"></polyline><text font-family="sans-serif" x="790" y="74">Norwich</text><polyline points="835.7,100.0,785.85,100.0,785.85,140.0,835.7,140.0" style="fill:none;stroke:black;stroke-width:2"></polyline><polyline points="884.0,90.0,835.7,90.0,835.7,110.0,884.0,110.0" style="fill:none;stroke:black;stroke-width:2"></polyline><text font-family="sans-serif" x="888" y="94">Nottingham</text><text font-family="sans-serif" x="888" y="114">Peterborough</text><polyline points="878.84,130.0,835.7,130.0,835.7,150.0,878.84,150.0" style="fill:none;stroke:black;stroke-width:2"></polyline><text font-family="sans-serif" x="883" y="134">Birmingham</text><text font-family="sans-serif" x="883" y="154">Oxford</text><polyline points="730.37,170.0,682.28,170.0,682.28,190.0,730.37,190.0" style="fill:none;stroke:black;stroke-width:2"></polyline><text font-family="sans-serif" x="735" y="174">London</text><text font-family="sans-serif" x="735" y="194">Brighton</text><polyline points="679.83,230.0,581.82,230.0,581.82,270.0,679.83,270.0" style="fill:none;stroke:black;stroke-width:2"></polyline><polyline points="740.73,220.0,679.83,220.0,679.83,250.0,740.73,250.0" style="fill:none;stroke:black;stroke-width:2"></polyline><polyline points="766.72,210.0,740.73,210.0,740.73,230.0,766.72,230.0" style="fill:none;stroke:black;stroke-width:2"></polyline><text font-family="sans-serif" x="771" y="214">Bristol</text><text font-family="sans-serif" x="771" y="234">Cardiff</text><text font-family="sans-serif" x="745" y="254">Exeter</text><text font-family="sans-serif" x="684" y="274">Aberystwyth</text><polyline points="514.4,300.0,427.67,300.0,427.67,340.0,514.4,340.0" style="fill:none;stroke:black;stroke-width:2"></polyline><polyline points="589.81,290.0,514.4,290.0,514.4,310.0,589.81,310.0" style="fill:none;stroke:black;stroke-width:2"></polyline><text font-family="sans-serif" x="594" y="294">Newcastle</text><text font-family="sans-serif" x="594" y="314">York</text><polyline points="541.66,330.0,514.4,330.0,514.4,350.0,541.66,350.0" style="fill:none;stroke:black;stroke-width:2"></polyline><text font-family="sans-serif" x="546" y="334">Liverpool</text><text font-family="sans-serif" x="546" y="354">Preston</text></g></svg>