<svg height="960" overflow="visible" preserveAspectRatio="xMidYMid meet" version="1.0" width="1024" xmlns:xlink="http://www.w3.org/1999/xlink" xmlns="http://www.w3.org/2000/svg" zoomAndPan="magnify"><g><polyline points="0.0,480.0,10.0,480.0" style="fill:none;stroke:black;stroke-width:2"></polyline><polyline points="287.88,110.0,10.0,110.0,10.0,590.0,287.88,590.0" style="fill:none;stroke:black;stroke-width:2"></polyline><polyline points="384.88,70.0,287.88,70.0,287.88,180.0,384.88,180.0" style="fill:none;stroke:black;stroke-width:2"></polyline><polyline points="456.34,40.0,384.88,40.0,384.88,110.0,456.34,110.0" style="fill:none;stroke:black;stroke-width:2"></polyline><polyline points="525.56,30.0,456.34,30.0,456.34,70.0,525.56,70.0" style="fill:none;stroke:black;stroke-width:2"></polyline><polyline points="567.46,10.0,525.56,10.0,525.56,40.0,567.46,40.0" style="fill:none;stroke:black;stroke-width:2"></polyline><text font-family="sans-serif" x="572" y="14">NM</text><polyline points="579.6,30.0,567.46,30.0,567.46,50.0,579.6,50.0" style="fill:none;stroke:black;stroke-width:2"></polyline><text font-family="sans-serif" x="584" y="34">CO</text><text font-family="sans-serif" x="584" y="54">WY</text><text font-family="sans-serif" x="530" y="74">AZ</text><polyline points="498.23,100.0,456.34,100.0,456.34,130.0,498.23,130.0" style="fill:none;stroke:black;stroke-width:2"></polyline><polyline points="542.4,90.0,498.23,90.0,498.23,110.0,542.4,110.0" style="fill:none;stroke:black;stroke-width:2"></polyline><text font-family="sans-serif" x="547" y="94">ID</text><text font-family="sans-serif" x="547" y="114">MT</text><text font-family="sans-serif" x="503" y="134">UT</text><polyline points="449.14,160.0,384.88,160.0,384.88,200.0,449.14,200.0" style="fill:none;stroke:black;stroke-width:2"></polyline><polyline points="467.25,150.0,449.14,150.0,449.14,170.0,467.25,170.0" style="fill:none;stroke:black;stroke-width:2"></polyline><text font-family="sans-serif" x="472" y="154">WA</text><text font-family="sans-serif" x="472" y="174">OR</text><polyline points="464.71,190.0,449.14,190.0,449.14,210.0,464.71,210.0" style="fill:none;stroke:black;stroke-width:2"></polyline><text font-family="sans-serif" x="469" y="194">NV</text><text font-family="sans-serif" x="469" y="214">CA</text><polyline points="468.32,330.0,287.88,330.0,287.88,700.0,468.32,700.0" style="fill:none;stroke:black;stroke-width:2"></polyline><polyline points="519.22,260.0,468.32,260.0,468.32,370.0,519.22,370.0" style="fill:none;stroke:black;stroke-width:2"></polyline><polyline points="534.43,250.0,519.22,250.0,519.22,290.0,534.43,290.0" style="fill:none;stroke:black;stroke-width:2"></polyline><polyline points="547.09,240.0,534.43,240.0,534.43,270.0,547.09,270.0" style="fill:none;stroke:black;stroke-width:2"></polyline><polyline points="555.59,230.0,547.09,230.0,547.09,250.0,555.59,250.0" style="fill:none;stroke:black;stroke-width:2"></polyline><text font-family="sans-serif" x="560" y="234">MD</text><text font-family="sans-serif" x="560" y="254">DE</text><text font-family="sans-serif" x="552" y="274">PA</text><text font-family="sans-serif" x="539" y="294">NJ</text><polyline points="543.61,310.0,519.22,310.0,519.22,380.0,543.61,380.0" style="fill:none;stroke:black;stroke-width:2"></polyline><text font-family="sans-serif" x="548" y="314">ME</text><polyline points="559.58,330.0,543.61,330.0,543.61,390.0,559.58,390.0" style="fill:none;stroke:black;stroke-width:2"></polyline><text font-family="sans-serif" x="564" y="334">VT</text><polyline points="575.74,370.0,559.58,370.0,559.58,420.0,575.74,420.0" style="fill:none;stroke:black;stroke-width:2"></polyline><polyline points="586.31,350.0,575.74,350.0,575.74,380.0,586.31,380.0" style="fill:none;stroke:black;stroke-width:2"></polyline><text font-family="sans-serif" x="591" y="354">NH</text><polyline points="591.19,370.0,586.31,370.0,586.31,390.0,591.19,390.0" style="fill:none;stroke:black;stroke-width:2"></polyline><text font-family="sans-serif" x="596" y="374">MA</text><text font-family="sans-serif" x="596" y="394">RI</text><polyline points="587.9,410.0,575.74,410.0,575.74,430.0,587.9,430.0" style="fill:none;stroke:black;stroke-width:2"></polyline><text font-family="sans-serif" x="592" y="414">CT</text><text font-family="sans-serif" x="592" y="434">NY</text><polyline points="600.17,460.0,468.32,460.0,468.32,720.0,600.17,720.0" style="fill:none;stroke:black;stroke-width:2"></polyline><polyline points="638.41,450.0,600.17,450.0,600.17,470.0,638.41,470.0" style="fill:none;stroke:black;stroke-width:2"></polyline><text font-family="sans-serif" x="643" y="454">ND</text><text font-family="sans-serif" x="643" y="474">SD</text><polyline points="686.23,600.0,600.17,600.0,600.17,840.0,686.23,840.0" style="fill:none;stroke:black;stroke-width:2"></polyline><polyline points="749.15,540.0,686.23,540.0,686.23,660.0,749.15,660.0" style="fill:none;stroke:black;stroke-width:2"></polyline><polyline points="803.59,510.0,749.15,510.0,749.15,570.0,803.59,570.0" style="fill:none;stroke:black;stroke-width:2"></polyline><polyline points="837.8,500.0,803.59,500.0,803.59,530.0,837.8,530.0" style="fill:none;stroke:black;stroke-width:2"></polyline><polyline points="855.99,490.0,837.8,490.0,837.8,510.0,855.99,510.0" style="fill:none;stroke:black;stroke-width:2"></polyline><text font-family="sans-serif" x="860" y="494">VA</text><text font-family="sans-serif" x="860" y="514">NC</text><text font-family="sans-serif" x="842" y="534">SC</text><polyline points="827.7,550.0,803.59,550.0,803.59,580.0,827.7,580.0" style="fill:none;stroke:black;stroke-width:2"></polyline><text font-family="sans-serif" x="832" y="554">FL</text><polyline points="847.83,570.0,827.7,570.0,827.7,590.0,847.83,590.0" style="fill:none;stroke:black;stroke-width:2"></polyline><text font-family="sans-serif" x="852" y="574">AL</text><text font-family="sans-serif" x="852" y="594">GA</text><polyline points="786.62,650.0,749.15,650.0,749.15,710.0,786.62,710.0" style="fill:none;stroke:black;stroke-width:2"></polyline><polyline points="822.06,620.0,786.62,620.0,786.62,670.0,822.06,670.0" style="fill:none;stroke:black;stroke-width:2"></polyline><polyline points="840.16,610.0,822.06,610.0,822.06,630.0,840.16,630.0" style="fill:none;stroke:black;stroke-width:2"></polyline><text font-family="sans-serif" x="845" y="614">OH</text><text font-family="sans-serif" x="845" y="634">WV</text><polyline points="848.64,650.0,822.06,650.0,822.06,680.0,848.64,680.0" style="fill:none;stroke:black;stroke-width:2"></polyline><text font-family="sans-serif" x="853" y="654">TN</text><polyline points="866.16,670.0,848.64,670.0,848.64,690.0,866.16,690.0" style="fill:none;stroke:black;stroke-width:2"></polyline><text font-family="sans-serif" x="871" y="674">IN</text><text font-family="sans-serif" x="871" y="694">KY</text><text font-family="sans-serif" x="791" y="714">MI</text><polyline points="766.36,790.0,686.23,790.0,686.23,910.0,766.36,910.0" style="fill:none;stroke:black;stroke-width:2"></polyline><polyline points="803.83,770.0,766.36,770.0,766.36,840.0,803.83,840.0" style="fill:none;stroke:black;stroke-width:2"></polyline><polyline points="840.5,740.0,803.83,740.0,803.83,790.0,840.5,790.0" style="fill:none;stroke:black;stroke-width:2"></polyline><polyline points="864.58,730.0,840.5,730.0,840.5,750.0,864.58,750.0" style="fill:none;stroke:black;stroke-width:2"></polyline><text font-family="sans-serif" x="869" y="734">MO</text><text font-family="sans-serif" x="869" y="754">IL</text><polyline points="866.66,780.0,840.5,780.0,840.5,810.0,866.66,810.0" style="fill:none;stroke:black;stroke-width:2"></polyline><polyline points="884.0,770.0,866.66,770.0,866.66,790.0,884.0,790.0" style="fill:none;stroke:black;stroke-width:2"></polyline><text font-family="sans-serif" x="889" y="774">KS</text><text font-family="sans-serif" x="889" y="794">NE</text><text font-family="sans-serif" x="871" y="814">IA</text><polyline points="839.41,830.0,803.83,830.0,803.83,850.0,839.41,850.0" style="fill:none;stroke:black;stroke-width:2"></polyline><text font-family="sans-serif" x="844" y="834">MN</text><text font-family="sans-serif" x="844" y="854">WI</text><polyline points="818.95,880.0,766.36,880.0,766.36,930.0,818.95,930.0" style="fill:none;stroke:black;stroke-width:2"></polyline><polyline points="863.64,870.0,818.95,870.0,818.95,890.0,863.64,890.0" style="fill:none;stroke:black;stroke-width:2"></polyline><text font-family="sans-serif" x="868" y="874">TX</text><text font-family="sans-serif" x="868" y="894">OK</text><polyline points="850.92,910.0,818.95,910.0,818.95,940.0,850.92,940.0" style="fill:none;stroke:black;stroke-width:2"></polyline><text font-family="sans-serif" x="855" y="914">AR</text><polyline points="868.75,930.0,850.92,930.0,850.92,950.0,868.75,950.0" style="fill:none;stroke:black;stroke-width:2"></polyline><text font-family="sans-serif" x="873" y="934">MS</text><text font-family="sans-serif" x="873" y="954">LA</text></g></svg>