<svg height="440" overflow="visible" preserveAspectRatio="xMidYMid meet" version="1.0" width="1024" xmlns:xlink="http://www.w3.org/1999/xlink" xmlns="http://www.w3.org/2000/svg" zoomAndPan="magnify"><g><polyline points="0.0,220.0,10.0,220.0" style="fill:none;stroke:black;stroke-width:2"></polyline><polyline points="221.26,80.0,10.0,80.0,10.0,300.0,221.26,300.0" style="fill:none;stroke:black;stroke-width:2"></polyline><polyline points="331.81,40.0,221.26,40.0,221.26,120.0,331.81,120.0" style="fill:none;stroke:black;stroke-width:2"></polyline><polyline points="417.54,10.0,331.81,10.0,331.81,50.0,417.54,50.0" style="fill:none;stroke:black;stroke-width:2"></polyline><text font-family="sans-serif" x="422" y="14">Bremen</text><polyline points="456.73,40.0,417.54,40.0,417.54,70.0,456.73,70.0" style="fill:none;stroke:black;stroke-width:2"></polyline><polyline points="492.78,30.0,456.73,30.0,456.73,50.0,492.78,50.0" style="fill:none;stroke:black;stroke-width:2"></polyline><text font-family="sans-serif" x="497" y="34">Hamburg</text><text font-family="sans-serif" x="497" y="54">Luebeck</text><text font-family="sans-serif" x="461" y="74">Kiel</text><polyline points="416.75,90.0,331.81,90.0,331.81,130.0,416.75,130.0" style="fill:none;stroke:black;stroke-width:2"></polyline><text font-family="sans-serif" x="421" y="94">Braunschweig</text><polyline points="491.29,110.0,416.75,110.0,416.75,140.0,491.29,140.0" style="fill:none;stroke:black;stroke-width:2"></polyline><text font-family="sans-serif" x="496" y="114">Kassel</text><polyline points="528.47,130.0,491.29,130.0,491.29,150.0,528.47,150.0" style="fill:none;stroke:black;stroke-width:2"></polyline><text font-family="sans-serif" x="533" y="134">Muenster</text><text font-family="sans-serif" x="533" y="154">Bielefeld</text><polyline points="437.28,220.0,221.26,220.0,221.26,360.0,437.28,360.0" style="fill:none;stroke:black;stroke-width:2"></polyline><polyline points="552.26,170.0,437.28,170.0,437.28,230.0,552.26,230.0" style="fill:none;stroke:black;stroke-width:2"></polyline><text font-family="sans-serif" x="557" y="174">Hof</text><polyline points="640.87,190.0,552.26,190.0,552.26,240.0,640.87,240.0" style="fill:none;stroke:black;stroke-width:2"></polyline><text font-family="sans-serif" x="645" y="194">Passau</text><polyline points="709.78,220.0,640.87,220.0,640.87,260.0,709.78,260.0" style="fill:none;stroke:black;stroke-width:2"></polyline><polyline points="743.86,210.0,709.78,210.0,709.78,230.0,743.86,230.0" style="fill:none;stroke:black;stroke-width:2"></polyline><text font-family="sans-serif" x="748" y="214">Augsburg</text><text font-family="sans-serif" x="748" y="234">Muenchen</text><polyline points="762.33,250.0,709.78,250.0,709.78,270.0,762.33,270.0" style="fill:none;stroke:black;stroke-width:2"></polyline><text font-family="sans-serif" x="767" y="254">Nuernberg</text><text font-family="sans-serif" x="767" y="274">Regensburg</text><polyline points="605.75,310.0,437.28,310.0,437.28,390.0,605.75,390.0" style="fill:none;stroke:black;stroke-width:2"></polyline><polyline points="652.74,290.0,605.75,290.0,605.75,320.0,652.74,320.0" style="fill:none;stroke:black;stroke-width:2"></polyline><text font-family="sans-serif" x="657" y="294">Aachen</text><polyline points="684.52,310.0,652.74,310.0,652.74,330.0,684.52,330.0" style="fill:none;stroke:black;stroke-width:2"></polyline><text font-family="sans-serif" x="689" y="314">Koeln</text><text font-family="sans-serif" x="689" y="334">Essen</text><polyline points="700.85,380.0,605.75,380.0,605.75,430.0,700.85,430.0" style="fill:none;stroke:black;stroke-width:2"></polyline><polyline points="790.16,350.0,700.85,350.0,700.85,390.0,790.16,390.0" style="fill:none;stroke:black;stroke-width:2"></polyline><text font-family="sans-serif" x="795" y="354">Saarbruecken</text><polyline points="852.38,380.0,790.16,380.0,790.16,410.0,852.38,410.0" style="fill:none;stroke:black;stroke-width:2"></polyline><polyline points="884.0,370.0,852.38,370.0,852.38,390.0,884.0,390.0" style="fill:none;stroke:black;stroke-width:2"></polyline><text font-family="sans-serif" x="889" y="374">Mannheim</text><text font-family="sans-serif" x="889" y="394">Karlsruhe</text><text font-family="sans-serif" x="857" y="414">Wuerzburg</text><text font-family="sans-serif" x="705" y="434">Freiburg</text></g></svg>