<svg height="4000" overflow="visible" preserveAspectRatio="xMidYMid meet" version="1.0" width="1024" xmlns:xlink="http://www.w3.org/1999/xlink" xmlns="http://www.w3.org/2000/svg" zoomAndPan="magnify"><g><polyline points="0.0,2000.0,10.0,2000.0" style="fill:none;stroke:black;stroke-width:2"></polyline><polyline points="80.86,1990.0,10.0,1990.0,10.0,3990.0,80.86,3990.0" style="fill:none;stroke:black;stroke-width:2"></polyline><polyline points="128.11,680.0,80.86,680.0,80.86,2670.0,128.11,2670.0" style="fill:none;stroke:black;stroke-width:2"></polyline><polyline points="187.16,660.0,128.11,660.0,128.11,1340.0,187.16,1340.0" style="fill:none;stroke:black;stroke-width:2"></polyline><polyline points="246.22,20.0,187.16,20.0,187.16,680.0,246.22,680.0" style="fill:none;stroke:black;stroke-width:2"></polyline><polyline points="293.46,10.0,246.22,10.0,246.22,30.0,293.46,30.0" style="fill:none;stroke:black;stroke-width:2"></polyline><text font-family="sans-serif" x="298" y="14">brunet</text><text font-family="sans-serif" x="298" y="34">buzzed</text><polyline points="305.27,560.0,246.22,560.0,246.22,1200.0,305.27,1200.0" style="fill:none;stroke:black;stroke-width:2"></polyline><polyline points="364.32,540.0,305.27,540.0,305.27,1060.0,364.32,1060.0" style="fill:none;stroke:black;stroke-width:2"></polyline><polyline points="423.38,160.0,364.32,160.0,364.32,660.0,423.38,660.0" style="fill:none;stroke:black;stroke-width:2"></polyline><polyline points="482.43,150.0,423.38,150.0,423.38,270.0,482.43,270.0" style="fill:none;stroke:black;stroke-width:2"></polyline><polyline points="541.49,130.0,482.43,130.0,482.43,240.0,541.49,240.0" style="fill:none;stroke:black;stroke-width:2"></polyline><polyline points="600.54,100.0,541.49,100.0,541.49,190.0,600.54,190.0" style="fill:none;stroke:black;stroke-width:2"></polyline><polyline points="647.78,80.0,600.54,80.0,600.54,140.0,647.78,140.0" style="fill:none;stroke:black;stroke-width:2"></polyline><polyline points="695.03,70.0,647.78,70.0,647.78,110.0,695.03,110.0" style="fill:none;stroke:black;stroke-width:2"></polyline><polyline points="742.27,50.0,695.03,50.0,695.03,80.0,742.27,80.0" style="fill:none;stroke:black;stroke-width:2"></polyline><text font-family="sans-serif" x="747" y="54">cassia</text><polyline points="765.89,70.0,742.27,70.0,742.27,90.0,765.89,90.0" style="fill:none;stroke:black;stroke-width:2"></polyline><text font-family="sans-serif" x="770" y="74">dorset</text><text font-family="sans-serif" x="770" y="94">doesnt</text><text font-family="sans-serif" x="700" y="114">christ</text><polyline points="683.22,130.0,647.78,130.0,647.78,150.0,683.22,150.0" style="fill:none;stroke:black;stroke-width:2"></polyline><text font-family="sans-serif" x="688" y="134">cervix</text><text font-family="sans-serif" x="688" y="154">ceress</text><polyline points="647.78,180.0,600.54,180.0,600.54,210.0,647.78,210.0" style="fill:none;stroke:black;stroke-width:2"></polyline><polyline points="683.22,170.0,647.78,170.0,647.78,190.0,683.22,190.0" style="fill:none;stroke:black;stroke-width:2"></polyline><text font-family="sans-serif" x="688" y="174">lyceum</text><text font-family="sans-serif" x="688" y="194">slocum</text><text font-family="sans-serif" x="652" y="214">drudge</text><polyline points="565.11,230.0,541.49,230.0,541.49,250.0,565.11,250.0" style="fill:none;stroke:black;stroke-width:2"></polyline><text font-family="sans-serif" x="570" y="234">shlepp</text><text font-family="sans-serif" x="570" y="254">schlep</text><text font-family="sans-serif" x="487" y="274">tammuz</text><polyline points="470.62,600.0,423.38,600.0,423.38,980.0,470.62,980.0" style="fill:none;stroke:black;stroke-width:2"></polyline><polyline points="529.68,300.0,470.62,300.0,470.62,620.0,529.68,620.0" style="fill:none;stroke:black;stroke-width:2"></polyline><polyline points="576.92,290.0,529.68,290.0,529.68,310.0,576.92,310.0" style="fill:none;stroke:black;stroke-width:2"></polyline><text font-family="sans-serif" x="581" y="294">dreary</text><text font-family="sans-serif" x="581" y="314">yataro</text><polyline points="576.92,440.0,529.68,440.0,529.68,740.0,576.92,740.0" style="fill:none;stroke:black;stroke-width:2"></polyline><polyline points="624.16,370.0,576.92,370.0,576.92,490.0,624.16,490.0" style="fill:none;stroke:black;stroke-width:2"></polyline><polyline points="671.41,350.0,624.16,350.0,624.16,400.0,671.41,400.0" style="fill:none;stroke:black;stroke-width:2"></polyline><polyline points="706.84,330.0,671.41,330.0,671.41,360.0,706.84,360.0" style="fill:none;stroke:black;stroke-width:2"></polyline><text font-family="sans-serif" x="711" y="334">newman</text><polyline points="730.46,350.0,706.84,350.0,706.84,370.0,730.46,370.0" style="fill:none;stroke:black;stroke-width:2"></polyline><text font-family="sans-serif" x="735" y="354">gaiman</text><text font-family="sans-serif" x="735" y="374">cayman</text><polyline points="718.65,390.0,671.41,390.0,671.41,410.0,718.65,410.0" style="fill:none;stroke:black;stroke-width:2"></polyline><text font-family="sans-serif" x="723" y="394">refund</text><text font-family="sans-serif" x="723" y="414">deftly</text><polyline points="659.59,470.0,624.16,470.0,624.16,540.0,659.59,540.0" style="fill:none;stroke:black;stroke-width:2"></polyline><polyline points="695.03,460.0,659.59,460.0,659.59,510.0,695.03,510.0" style="fill:none;stroke:black;stroke-width:2"></polyline><polyline points="730.46,430.0,695.03,430.0,695.03,470.0,730.46,470.0" style="fill:none;stroke:black;stroke-width:2"></polyline><text font-family="sans-serif" x="735" y="434">lhasas</text><polyline points="765.89,450.0,730.46,450.0,730.46,480.0,765.89,480.0" style="fill:none;stroke:black;stroke-width:2"></polyline><text font-family="sans-serif" x="770" y="454">emails</text><polyline points="789.51,470.0,765.89,470.0,765.89,490.0,789.51,490.0" style="fill:none;stroke:black;stroke-width:2"></polyline><text font-family="sans-serif" x="794" y="474">scarfs</text><text font-family="sans-serif" x="794" y="494">starrs</text><text font-family="sans-serif" x="700" y="514">knopfs</text><polyline points="695.03,530.0,659.59,530.0,659.59,550.0,695.03,550.0" style="fill:none;stroke:black;stroke-width:2"></polyline><text font-family="sans-serif" x="700" y="534">slushy</text><text font-family="sans-serif" x="700" y="554">clunky</text><polyline points="624.16,650.0,576.92,650.0,576.92,830.0,624.16,830.0" style="fill:none;stroke:black;stroke-width:2"></polyline><polyline points="659.59,590.0,624.16,590.0,624.16,680.0,659.59,680.0" style="fill:none;stroke:black;stroke-width:2"></polyline><polyline points="695.03,580.0,659.59,580.0,659.59,610.0,695.03,610.0" style="fill:none;stroke:black;stroke-width:2"></polyline><polyline points="730.46,570.0,695.03,570.0,695.03,590.0,730.46,590.0" style="fill:none;stroke:black;stroke-width:2"></polyline><text font-family="sans-serif" x="735" y="574">parrys</text><text font-family="sans-serif" x="735" y="594">capras</text><text font-family="sans-serif" x="700" y="614">rearms</text><polyline points="695.03,660.0,659.59,660.0,659.59,720.0,695.03,720.0" style="fill:none;stroke:black;stroke-width:2"></polyline><polyline points="730.46,640.0,695.03,640.0,695.03,680.0,730.46,680.0" style="fill:none;stroke:black;stroke-width:2"></polyline><polyline points="765.89,630.0,730.46,630.0,730.46,650.0,765.89,650.0" style="fill:none;stroke:black;stroke-width:2"></polyline><text font-family="sans-serif" x="770" y="634">helios</text><text font-family="sans-serif" x="770" y="654">helmet</text><polyline points="754.08,670.0,730.46,670.0,730.46,690.0,754.08,690.0" style="fill:none;stroke:black;stroke-width:2"></polyline><text font-family="sans-serif" x="759" y="674">hakkas</text><text font-family="sans-serif" x="759" y="694">haikus</text><polyline points="730.46,710.0,695.03,710.0,695.03,730.0,730.46,730.0" style="fill:none;stroke:black;stroke-width:2"></polyline><text font-family="sans-serif" x="735" y="714">scents</text><text font-family="sans-serif" x="735" y="734">schwas</text><polyline points="659.59,760.0,624.16,760.0,624.16,850.0,659.59,850.0" style="fill:none;stroke:black;stroke-width:2"></polyline><polyline points="695.03,750.0,659.59,750.0,659.59,770.0,695.03,770.0" style="fill:none;stroke:black;stroke-width:2"></polyline><text font-family="sans-serif" x="700" y="754">buicks</text><text font-family="sans-serif" x="700" y="774">smirks</text><polyline points="695.03,840.0,659.59,840.0,659.59,910.0,695.03,910.0" style="fill:none;stroke:black;stroke-width:2"></polyline><polyline points="730.46,830.0,695.03,830.0,695.03,890.0,730.46,890.0" style="fill:none;stroke:black;stroke-width:2"></polyline><polyline points="765.89,810.0,730.46,810.0,730.46,860.0,765.89,860.0" style="fill:none;stroke:black;stroke-width:2"></polyline><polyline points="801.32,790.0,765.89,790.0,765.89,820.0,801.32,820.0" style="fill:none;stroke:black;stroke-width:2"></polyline><text font-family="sans-serif" x="806" y="794">foetus</text><polyline points="836.76,810.0,801.32,810.0,801.32,830.0,836.76,830.0" style="fill:none;stroke:black;stroke-width:2"></polyline><text font-family="sans-serif" x="841" y="814">kudzus</text><text font-family="sans-serif" x="841" y="834">mucous</text><polyline points="789.51,850.0,765.89,850.0,765.89,870.0,789.51,870.0" style="fill:none;stroke:black;stroke-width:2"></polyline><text font-family="sans-serif" x="794" y="854">arises</text><text font-family="sans-serif" x="794" y="874">drives</text><text font-family="sans-serif" x="735" y="894">muftis</text><text font-family="sans-serif" x="700" y="914">islams</text><polyline points="517.86,970.0,470.62,970.0,470.62,1030.0,517.86,1030.0" style="fill:none;stroke:black;stroke-width:2"></polyline><polyline points="553.3,950.0,517.86,950.0,517.86,1000.0,553.3,1000.0" style="fill:none;stroke:black;stroke-width:2"></polyline><polyline points="600.54,940.0,553.3,940.0,553.3,970.0,600.54,970.0" style="fill:none;stroke:black;stroke-width:2"></polyline><polyline points="635.97,930.0,600.54,930.0,600.54,950.0,635.97,950.0" style="fill:none;stroke:black;stroke-width:2"></polyline><text font-family="sans-serif" x="640" y="934">lannys</text><text font-family="sans-serif" x="640" y="954">lingos</text><text font-family="sans-serif" x="605" y="974">teddys</text><polyline points="588.73,990.0,553.3,990.0,553.3,1010.0,588.73,1010.0" style="fill:none;stroke:black;stroke-width:2"></polyline><text font-family="sans-serif" x="593" y="994">franzs</text><text font-family="sans-serif" x="593" y="1014">friers</text><text font-family="sans-serif" x="522" y="1034">aghast</text><polyline points="399.76,1050.0,364.32,1050.0,364.32,1070.0,399.76,1070.0" style="fill:none;stroke:black;stroke-width:2"></polyline><text font-family="sans-serif" x="404" y="1054">volgas</text><text font-family="sans-serif" x="404" y="1074">morgan</text><polyline points="352.51,1100.0,305.27,1100.0,305.27,1220.0,352.51,1220.0" style="fill:none;stroke:black;stroke-width:2"></polyline><polyline points="387.95,1090.0,352.51,1090.0,352.51,1110.0,387.95,1110.0" style="fill:none;stroke:black;stroke-width:2"></polyline><text font-family="sans-serif" x="392" y="1094">snitch</text><text font-family="sans-serif" x="392" y="1114">slouch</text><polyline points="387.95,1210.0,352.51,1210.0,352.51,1310.0,387.95,1310.0" style="fill:none;stroke:black;stroke-width:2"></polyline><polyline points="423.38,1140.0,387.95,1140.0,387.95,1230.0,423.38,1230.0" style="fill:none;stroke:black;stroke-width:2"></polyline><polyline points="458.81,1130.0,423.38,1130.0,423.38,1150.0,458.81,1150.0" style="fill:none;stroke:black;stroke-width:2"></polyline><text font-family="sans-serif" x="463" y="1134">malone</text><text font-family="sans-serif" x="463" y="1154">nylons</text><polyline points="458.81,1190.0,423.38,1190.0,423.38,1260.0,458.81,1260.0" style="fill:none;stroke:black;stroke-width:2"></polyline><polyline points="494.24,1170.0,458.81,1170.0,458.81,1200.0,494.24,1200.0" style="fill:none;stroke:black;stroke-width:2"></polyline><text font-family="sans-serif" x="499" y="1174">latino</text><polyline points="517.86,1190.0,494.24,1190.0,494.24,1210.0,517.86,1210.0" style="fill:none;stroke:black;stroke-width:2"></polyline><text font-family="sans-serif" x="522" y="1194">miking</text><text font-family="sans-serif" x="522" y="1214">kiting</text><polyline points="494.24,1250.0,458.81,1250.0,458.81,1290.0,494.24,1290.0" style="fill:none;stroke:black;stroke-width:2"></polyline><polyline points="517.86,1240.0,494.24,1240.0,494.24,1270.0,517.86,1270.0" style="fill:none;stroke:black;stroke-width:2"></polyline><polyline points="529.68,1230.0,517.86,1230.0,517.86,1250.0,529.68,1250.0" style="fill:none;stroke:black;stroke-width:2"></polyline><text font-family="sans-serif" x="534" y="1234">dandys</text><text font-family="sans-serif" x="534" y="1254">mandys</text><text font-family="sans-serif" x="522" y="1274">shandy</text><text font-family="sans-serif" x="499" y="1294">egging</text><text font-family="sans-serif" x="392" y="1314">lillie</text><polyline points="234.41,1330.0,187.16,1330.0,187.16,1350.0,234.41,1350.0" style="fill:none;stroke:black;stroke-width:2"></polyline><text font-family="sans-serif" x="239" y="1334">nudity</text><text font-family="sans-serif" x="239" y="1354">shifty</text><polyline points="187.16,1370.0,128.11,1370.0,128.11,2680.0,187.16,2680.0" style="fill:none;stroke:black;stroke-width:2"></polyline><text font-family="sans-serif" x="192" y="1374">revolt</text><polyline points="234.41,2670.0,187.16,2670.0,187.16,3970.0,234.41,3970.0" style="fill:none;stroke:black;stroke-width:2"></polyline><polyline points="281.65,2380.0,234.41,2380.0,234.41,3670.0,281.65,3670.0" style="fill:none;stroke:black;stroke-width:2"></polyline><polyline points="328.89,2170.0,281.65,2170.0,281.65,3170.0,328.89,3170.0" style="fill:none;stroke:black;stroke-width:2"></polyline><polyline points="364.32,2100.0,328.89,2100.0,328.89,2890.0,364.32,2890.0" style="fill:none;stroke:black;stroke-width:2"></polyline><polyline points="411.57,1520.0,364.32,1520.0,364.32,2240.0,411.57,2240.0" style="fill:none;stroke:black;stroke-width:2"></polyline><polyline points="458.81,1500.0,411.57,1500.0,411.57,1640.0,458.81,1640.0" style="fill:none;stroke:black;stroke-width:2"></polyline><polyline points="506.05,1410.0,458.81,1410.0,458.81,1530.0,506.05,1530.0" style="fill:none;stroke:black;stroke-width:2"></polyline><polyline points="553.3,1400.0,506.05,1400.0,506.05,1430.0,553.3,1430.0" style="fill:none;stroke:black;stroke-width:2"></polyline><polyline points="588.73,1390.0,553.3,1390.0,553.3,1410.0,588.73,1410.0" style="fill:none;stroke:black;stroke-width:2"></polyline><text font-family="sans-serif" x="593" y="1394">lesley</text><text font-family="sans-serif" x="593" y="1414">reilly</text><text font-family="sans-serif" x="558" y="1434">blench</text><polyline points="553.3,1470.0,506.05,1470.0,506.05,1560.0,553.3,1560.0" style="fill:none;stroke:black;stroke-width:2"></polyline><polyline points="600.54,1460.0,553.3,1460.0,553.3,1490.0,600.54,1490.0" style="fill:none;stroke:black;stroke-width:2"></polyline><polyline points="635.97,1450.0,600.54,1450.0,600.54,1470.0,635.97,1470.0" style="fill:none;stroke:black;stroke-width:2"></polyline><text font-family="sans-serif" x="640" y="1454">lasted</text><text font-family="sans-serif" x="640" y="1474">flayed</text><text font-family="sans-serif" x="605" y="1494">knives</text><polyline points="600.54,1550.0,553.3,1550.0,553.3,1610.0,600.54,1610.0" style="fill:none;stroke:black;stroke-width:2"></polyline><polyline points="647.78,1520.0,600.54,1520.0,600.54,1570.0,647.78,1570.0" style="fill:none;stroke:black;stroke-width:2"></polyline><polyline points="683.22,1510.0,647.78,1510.0,647.78,1530.0,683.22,1530.0" style="fill:none;stroke:black;stroke-width:2"></polyline><text font-family="sans-serif" x="688" y="1514">ocasey</text><text font-family="sans-serif" x="688" y="1534">chaney</text><polyline points="683.22,1550.0,647.78,1550.0,647.78,1580.0,683.22,1580.0" style="fill:none;stroke:black;stroke-width:2"></polyline><text font-family="sans-serif" x="688" y="1554">earwax</text><polyline points="706.84,1570.0,683.22,1570.0,683.22,1590.0,706.84,1590.0" style="fill:none;stroke:black;stroke-width:2"></polyline><text font-family="sans-serif" x="711" y="1574">darins</text><text font-family="sans-serif" x="711" y="1594">farina</text><text font-family="sans-serif" x="605" y="1614">taipei</text><polyline points="494.24,1630.0,458.81,1630.0,458.81,1650.0,494.24,1650.0" style="fill:none;stroke:black;stroke-width:2"></polyline><text font-family="sans-serif" x="499" y="1634">basest</text><text font-family="sans-serif" x="499" y="1654">lament</text><polyline points="458.81,2020.0,411.57,2020.0,411.57,2600.0,458.81,2600.0" style="fill:none;stroke:black;stroke-width:2"></polyline><polyline points="506.05,2000.0,458.81,2000.0,458.81,2360.0,506.05,2360.0" style="fill:none;stroke:black;stroke-width:2"></polyline><polyline points="553.3,1960.0,506.05,1960.0,506.05,2300.0,553.3,2300.0" style="fill:none;stroke:black;stroke-width:2"></polyline><polyline points="588.73,1930.0,553.3,1930.0,553.3,2230.0,588.73,2230.0" style="fill:none;stroke:black;stroke-width:2"></polyline><polyline points="635.97,1910.0,588.73,1910.0,588.73,2180.0,635.97,2180.0" style="fill:none;stroke:black;stroke-width:2"></polyline><polyline points="683.22,1890.0,635.97,1890.0,635.97,2140.0,683.22,2140.0" style="fill:none;stroke:black;stroke-width:2"></polyline><polyline points="718.65,1790.0,683.22,1790.0,683.22,2020.0,718.65,2020.0" style="fill:none;stroke:black;stroke-width:2"></polyline><polyline points="754.08,1710.0,718.65,1710.0,718.65,1840.0,754.08,1840.0" style="fill:none;stroke:black;stroke-width:2"></polyline><polyline points="789.51,1690.0,754.08,1690.0,754.08,1740.0,789.51,1740.0" style="fill:none;stroke:black;stroke-width:2"></polyline><polyline points="824.95,1680.0,789.51,1680.0,789.51,1710.0,824.95,1710.0" style="fill:none;stroke:black;stroke-width:2"></polyline><polyline points="836.76,1670.0,824.95,1670.0,824.95,1690.0,836.76,1690.0" style="fill:none;stroke:black;stroke-width:2"></polyline><text font-family="sans-serif" x="841" y="1674">gauges</text><text font-family="sans-serif" x="841" y="1694">gouges</text><text font-family="sans-serif" x="829" y="1714">chimes</text><polyline points="813.14,1730.0,789.51,1730.0,789.51,1750.0,813.14,1750.0" style="fill:none;stroke:black;stroke-width:2"></polyline><text font-family="sans-serif" x="818" y="1734">cozies</text><text font-family="sans-serif" x="818" y="1754">cookes</text><polyline points="789.51,1810.0,754.08,1810.0,754.08,1890.0,789.51,1890.0" style="fill:none;stroke:black;stroke-width:2"></polyline><polyline points="824.95,1780.0,789.51,1780.0,789.51,1830.0,824.95,1830.0" style="fill:none;stroke:black;stroke-width:2"></polyline><polyline points="848.57,1770.0,824.95,1770.0,824.95,1790.0,848.57,1790.0" style="fill:none;stroke:black;stroke-width:2"></polyline><text font-family="sans-serif" x="853" y="1774">hunker</text><text font-family="sans-serif" x="853" y="1794">hacker</text><polyline points="836.76,1820.0,824.95,1820.0,824.95,1850.0,836.76,1850.0" style="fill:none;stroke:black;stroke-width:2"></polyline><polyline points="860.38,1810.0,836.76,1810.0,836.76,1830.0,860.38,1830.0" style="fill:none;stroke:black;stroke-width:2"></polyline><text font-family="sans-serif" x="865" y="1814">deeper</text><text font-family="sans-serif" x="865" y="1834">denver</text><text font-family="sans-serif" x="841" y="1854">deicer</text><polyline points="824.95,1880.0,789.51,1880.0,789.51,1910.0,824.95,1910.0" style="fill:none;stroke:black;stroke-width:2"></polyline><polyline points="860.38,1870.0,824.95,1870.0,824.95,1890.0,860.38,1890.0" style="fill:none;stroke:black;stroke-width:2"></polyline><text font-family="sans-serif" x="865" y="1874">cypher</text><text font-family="sans-serif" x="865" y="1894">hepper</text><text font-family="sans-serif" x="829" y="1914">logger</text><polyline points="754.08,2010.0,718.65,2010.0,718.65,2110.0,754.08,2110.0" style="fill:none;stroke:black;stroke-width:2"></polyline><polyline points="789.51,1990.0,754.08,1990.0,754.08,2080.0,789.51,2080.0" style="fill:none;stroke:black;stroke-width:2"></polyline><polyline points="824.95,1950.0,789.51,1950.0,789.51,2020.0,824.95,2020.0" style="fill:none;stroke:black;stroke-width:2"></polyline><polyline points="860.38,1940.0,824.95,1940.0,824.95,1970.0,860.38,1970.0" style="fill:none;stroke:black;stroke-width:2"></polyline><polyline points="884.0,1930.0,860.38,1930.0,860.38,1950.0,884.0,1950.0" style="fill:none;stroke:black;stroke-width:2"></polyline><text font-family="sans-serif" x="888" y="1934">burred</text><text font-family="sans-serif" x="888" y="1954">lurked</text><text font-family="sans-serif" x="865" y="1974">graved</text><polyline points="848.57,2000.0,824.95,2000.0,824.95,2040.0,848.57,2040.0" style="fill:none;stroke:black;stroke-width:2"></polyline><polyline points="872.19,1990.0,848.57,1990.0,848.57,2010.0,872.19,2010.0" style="fill:none;stroke:black;stroke-width:2"></polyline><text font-family="sans-serif" x="877" y="1994">hinged</text><text font-family="sans-serif" x="877" y="2014">bunged</text><polyline points="872.19,2030.0,848.57,2030.0,848.57,2050.0,872.19,2050.0" style="fill:none;stroke:black;stroke-width:2"></polyline><text font-family="sans-serif" x="877" y="2034">poised</text><text font-family="sans-serif" x="877" y="2054">bossed</text><polyline points="824.95,2070.0,789.51,2070.0,789.51,2090.0,824.95,2090.0" style="fill:none;stroke:black;stroke-width:2"></polyline><text font-family="sans-serif" x="829" y="2074">beeped</text><text font-family="sans-serif" x="829" y="2094">barfed</text><text font-family="sans-serif" x="759" y="2114">calmed</text><polyline points="718.65,2130.0,683.22,2130.0,683.22,2150.0,718.65,2150.0" style="fill:none;stroke:black;stroke-width:2"></polyline><text font-family="sans-serif" x="723" y="2134">avowed</text><text font-family="sans-serif" x="723" y="2154">answer</text><polyline points="671.41,2170.0,635.97,2170.0,635.97,2190.0,671.41,2190.0" style="fill:none;stroke:black;stroke-width:2"></polyline><text font-family="sans-serif" x="676" y="2174">daubed</text><text font-family="sans-serif" x="676" y="2194">hauler</text><polyline points="624.16,2220.0,588.73,2220.0,588.73,2250.0,624.16,2250.0" style="fill:none;stroke:black;stroke-width:2"></polyline><polyline points="659.59,2210.0,624.16,2210.0,624.16,2230.0,659.59,2230.0" style="fill:none;stroke:black;stroke-width:2"></polyline><text font-family="sans-serif" x="664" y="2214">kevens</text><text font-family="sans-serif" x="664" y="2234">civets</text><text font-family="sans-serif" x="629" y="2254">agrees</text><polyline points="600.54,2280.0,553.3,2280.0,553.3,2320.0,600.54,2320.0" style="fill:none;stroke:black;stroke-width:2"></polyline><polyline points="635.97,2270.0,600.54,2270.0,600.54,2290.0,635.97,2290.0" style="fill:none;stroke:black;stroke-width:2"></polyline><text font-family="sans-serif" x="640" y="2274">induct</text><text font-family="sans-serif" x="640" y="2294">inmost</text><polyline points="624.16,2310.0,600.54,2310.0,600.54,2330.0,624.16,2330.0" style="fill:none;stroke:black;stroke-width:2"></polyline><text font-family="sans-serif" x="629" y="2314">lancet</text><text font-family="sans-serif" x="629" y="2334">faucet</text><polyline points="541.49,2350.0,506.05,2350.0,506.05,2370.0,541.49,2370.0" style="fill:none;stroke:black;stroke-width:2"></polyline><text font-family="sans-serif" x="546" y="2354">phoebe</text><text font-family="sans-serif" x="546" y="2374">photos</text><polyline points="506.05,2570.0,458.81,2570.0,458.81,2790.0,506.05,2790.0" style="fill:none;stroke:black;stroke-width:2"></polyline><polyline points="541.49,2510.0,506.05,2510.0,506.05,2700.0,541.49,2700.0" style="fill:none;stroke:black;stroke-width:2"></polyline><polyline points="576.92,2480.0,541.49,2480.0,541.49,2610.0,576.92,2610.0" style="fill:none;stroke:black;stroke-width:2"></polyline><polyline points="612.35,2420.0,576.92,2420.0,576.92,2520.0,612.35,2520.0" style="fill:none;stroke:black;stroke-width:2"></polyline><polyline points="647.78,2410.0,612.35,2410.0,612.35,2450.0,647.78,2450.0" style="fill:none;stroke:black;stroke-width:2"></polyline><polyline points="683.22,2400.0,647.78,2400.0,647.78,2430.0,683.22,2430.0" style="fill:none;stroke:black;stroke-width:2"></polyline><polyline points="695.03,2390.0,683.22,2390.0,683.22,2410.0,695.03,2410.0" style="fill:none;stroke:black;stroke-width:2"></polyline><text font-family="sans-serif" x="700" y="2394">cronus</text><text font-family="sans-serif" x="700" y="2414">cronys</text><text font-family="sans-serif" x="688" y="2434">groups</text><text font-family="sans-serif" x="652" y="2454">herons</text><polyline points="647.78,2500.0,612.35,2500.0,612.35,2560.0,647.78,2560.0" style="fill:none;stroke:black;stroke-width:2"></polyline><polyline points="683.22,2490.0,647.78,2490.0,647.78,2530.0,683.22,2530.0" style="fill:none;stroke:black;stroke-width:2"></polyline><polyline points="706.84,2470.0,683.22,2470.0,683.22,2500.0,706.84,2500.0" style="fill:none;stroke:black;stroke-width:2"></polyline><text font-family="sans-serif" x="711" y="2474">ethers</text><polyline points="718.65,2490.0,706.84,2490.0,706.84,2510.0,718.65,2510.0" style="fill:none;stroke:black;stroke-width:2"></polyline><text font-family="sans-serif" x="723" y="2494">dryers</text><text font-family="sans-serif" x="723" y="2514">fryers</text><text font-family="sans-serif" x="688" y="2534">export</text><polyline points="683.22,2550.0,647.78,2550.0,647.78,2570.0,683.22,2570.0" style="fill:none;stroke:black;stroke-width:2"></polyline><text font-family="sans-serif" x="688" y="2554">suryas</text><text font-family="sans-serif" x="688" y="2574">juntas</text><polyline points="600.54,2590.0,576.92,2590.0,576.92,2620.0,600.54,2620.0" style="fill:none;stroke:black;stroke-width:2"></polyline><text font-family="sans-serif" x="605" y="2594">beryls</text><polyline points="624.16,2610.0,600.54,2610.0,600.54,2630.0,624.16,2630.0" style="fill:none;stroke:black;stroke-width:2"></polyline><text font-family="sans-serif" x="629" y="2614">metals</text><text font-family="sans-serif" x="629" y="2634">nepals</text><polyline points="565.11,2670.0,541.49,2670.0,541.49,2730.0,565.11,2730.0" style="fill:none;stroke:black;stroke-width:2"></polyline><polyline points="588.73,2650.0,565.11,2650.0,565.11,2680.0,588.73,2680.0" style="fill:none;stroke:black;stroke-width:2"></polyline><text font-family="sans-serif" x="593" y="2654">spokes</text><polyline points="600.54,2670.0,588.73,2670.0,588.73,2690.0,600.54,2690.0" style="fill:none;stroke:black;stroke-width:2"></polyline><text font-family="sans-serif" x="605" y="2674">shores</text><text font-family="sans-serif" x="605" y="2694">snores</text><polyline points="576.92,2710.0,565.11,2710.0,565.11,2740.0,576.92,2740.0" style="fill:none;stroke:black;stroke-width:2"></polyline><text font-family="sans-serif" x="581" y="2714">phones</text><polyline points="588.73,2730.0,576.92,2730.0,576.92,2750.0,588.73,2750.0" style="fill:none;stroke:black;stroke-width:2"></polyline><text font-family="sans-serif" x="593" y="2734">chokes</text><text font-family="sans-serif" x="593" y="2754">chores</text><polyline points="553.3,2780.0,506.05,2780.0,506.05,2810.0,553.3,2810.0" style="fill:none;stroke:black;stroke-width:2"></polyline><polyline points="588.73,2770.0,553.3,2770.0,553.3,2790.0,588.73,2790.0" style="fill:none;stroke:black;stroke-width:2"></polyline><text font-family="sans-serif" x="593" y="2774">elfish</text><text font-family="sans-serif" x="593" y="2794">salish</text><text font-family="sans-serif" x="558" y="2814">lowest</text><polyline points="411.57,2860.0,364.32,2860.0,364.32,2930.0,411.57,2930.0" style="fill:none;stroke:black;stroke-width:2"></polyline><polyline points="458.81,2830.0,411.57,2830.0,411.57,2870.0,458.81,2870.0" style="fill:none;stroke:black;stroke-width:2"></polyline><text font-family="sans-serif" x="463" y="2834">falcon</text><polyline points="494.24,2860.0,458.81,2860.0,458.81,2890.0,494.24,2890.0" style="fill:none;stroke:black;stroke-width:2"></polyline><polyline points="517.86,2850.0,494.24,2850.0,494.24,2870.0,517.86,2870.0" style="fill:none;stroke:black;stroke-width:2"></polyline><text font-family="sans-serif" x="522" y="2854">ration</text><text font-family="sans-serif" x="522" y="2874">action</text><text font-family="sans-serif" x="499" y="2894">inchon</text><polyline points="447.0,2920.0,411.57,2920.0,411.57,2950.0,447.0,2950.0" style="fill:none;stroke:black;stroke-width:2"></polyline><polyline points="482.43,2910.0,447.0,2910.0,447.0,2930.0,482.43,2930.0" style="fill:none;stroke:black;stroke-width:2"></polyline><text font-family="sans-serif" x="487" y="2914">kazoos</text><text font-family="sans-serif" x="487" y="2934">canoes</text><text font-family="sans-serif" x="452" y="2954">godots</text><polyline points="376.14,3120.0,328.89,3120.0,328.89,3330.0,376.14,3330.0" style="fill:none;stroke:black;stroke-width:2"></polyline><polyline points="423.38,2980.0,376.14,2980.0,376.14,3140.0,423.38,3140.0" style="fill:none;stroke:black;stroke-width:2"></polyline><polyline points="447.0,2970.0,423.38,2970.0,423.38,2990.0,447.0,2990.0" style="fill:none;stroke:black;stroke-width:2"></polyline><text font-family="sans-serif" x="451" y="2974">hovels</text><text font-family="sans-serif" x="451" y="2994">howell</text><polyline points="470.62,3130.0,423.38,3130.0,423.38,3270.0,470.62,3270.0" style="fill:none;stroke:black;stroke-width:2"></polyline><polyline points="517.86,3120.0,470.62,3120.0,470.62,3250.0,517.86,3250.0" style="fill:none;stroke:black;stroke-width:2"></polyline><polyline points="565.11,3030.0,517.86,3030.0,517.86,3150.0,565.11,3150.0" style="fill:none;stroke:black;stroke-width:2"></polyline><polyline points="600.54,3010.0,565.11,3010.0,565.11,3040.0,600.54,3040.0" style="fill:none;stroke:black;stroke-width:2"></polyline><text font-family="sans-serif" x="605" y="3014">gatsby</text><polyline points="624.16,3030.0,600.54,3030.0,600.54,3050.0,624.16,3050.0" style="fill:none;stroke:black;stroke-width:2"></polyline><text font-family="sans-serif" x="629" y="3034">kristy</text><text font-family="sans-serif" x="629" y="3054">crusty</text><polyline points="600.54,3120.0,565.11,3120.0,565.11,3210.0,600.54,3210.0" style="fill:none;stroke:black;stroke-width:2"></polyline><polyline points="635.97,3100.0,600.54,3100.0,600.54,3160.0,635.97,3160.0" style="fill:none;stroke:black;stroke-width:2"></polyline><polyline points="671.41,3080.0,635.97,3080.0,635.97,3120.0,671.41,3120.0" style="fill:none;stroke:black;stroke-width:2"></polyline><polyline points="706.84,3070.0,671.41,3070.0,671.41,3090.0,706.84,3090.0" style="fill:none;stroke:black;stroke-width:2"></polyline><text font-family="sans-serif" x="711" y="3074">fidget</text><text font-family="sans-serif" x="711" y="3094">bilges</text><polyline points="695.03,3110.0,671.41,3110.0,671.41,3130.0,695.03,3130.0" style="fill:none;stroke:black;stroke-width:2"></polyline><text font-family="sans-serif" x="700" y="3114">hikers</text><text font-family="sans-serif" x="700" y="3134">riders</text><polyline points="659.59,3150.0,635.97,3150.0,635.97,3170.0,659.59,3170.0" style="fill:none;stroke:black;stroke-width:2"></polyline><text font-family="sans-serif" x="664" y="3154">skulks</text><text font-family="sans-serif" x="664" y="3174">shucks</text><polyline points="635.97,3190.0,600.54,3190.0,600.54,3220.0,635.97,3220.0" style="fill:none;stroke:black;stroke-width:2"></polyline><text font-family="sans-serif" x="640" y="3194">motors</text><polyline points="659.59,3210.0,635.97,3210.0,635.97,3230.0,659.59,3230.0" style="fill:none;stroke:black;stroke-width:2"></polyline><text font-family="sans-serif" x="664" y="3214">metros</text><text font-family="sans-serif" x="664" y="3234">matzos</text><text font-family="sans-serif" x="522" y="3254">extoll</text><text font-family="sans-serif" x="475" y="3274">jerome</text><polyline points="411.57,3300.0,376.14,3300.0,376.14,3350.0,411.57,3350.0" style="fill:none;stroke:black;stroke-width:2"></polyline><polyline points="435.19,3290.0,411.57,3290.0,411.57,3310.0,435.19,3310.0" style="fill:none;stroke:black;stroke-width:2"></polyline><text font-family="sans-serif" x="440" y="3294">hustle</text><text font-family="sans-serif" x="440" y="3314">huddle</text><polyline points="447.0,3340.0,411.57,3340.0,411.57,3370.0,447.0,3370.0" style="fill:none;stroke:black;stroke-width:2"></polyline><polyline points="482.43,3330.0,447.0,3330.0,447.0,3350.0,482.43,3350.0" style="fill:none;stroke:black;stroke-width:2"></polyline><text font-family="sans-serif" x="487" y="3334">decide</text><text font-family="sans-serif" x="487" y="3354">excite</text><text font-family="sans-serif" x="452" y="3374">nicole</text><polyline points="340.7,3640.0,281.65,3640.0,281.65,3930.0,340.7,3930.0" style="fill:none;stroke:black;stroke-width:2"></polyline><polyline points="376.14,3600.0,340.7,3600.0,340.7,3860.0,376.14,3860.0" style="fill:none;stroke:black;stroke-width:2"></polyline><polyline points="423.38,3400.0,376.14,3400.0,376.14,3620.0,423.38,3620.0" style="fill:none;stroke:black;stroke-width:2"></polyline><polyline points="458.81,3390.0,423.38,3390.0,423.38,3410.0,458.81,3410.0" style="fill:none;stroke:black;stroke-width:2"></polyline><text font-family="sans-serif" x="463" y="3394">meadow</text><text font-family="sans-serif" x="463" y="3414">murrow</text><polyline points="470.62,3500.0,423.38,3500.0,423.38,3700.0,470.62,3700.0" style="fill:none;stroke:black;stroke-width:2"></polyline><polyline points="517.86,3460.0,470.62,3460.0,470.62,3540.0,517.86,3540.0" style="fill:none;stroke:black;stroke-width:2"></polyline><polyline points="565.11,3450.0,517.86,3450.0,517.86,3490.0,565.11,3490.0" style="fill:none;stroke:black;stroke-width:2"></polyline><polyline points="600.54,3440.0,565.11,3440.0,565.11,3470.0,600.54,3470.0" style="fill:none;stroke:black;stroke-width:2"></polyline><polyline points="612.35,3430.0,600.54,3430.0,600.54,3450.0,612.35,3450.0" style="fill:none;stroke:black;stroke-width:2"></polyline><text font-family="sans-serif" x="617" y="3434">splint</text><text font-family="sans-serif" x="617" y="3454">sprint</text><text font-family="sans-serif" x="605" y="3474">shrink</text><text font-family="sans-serif" x="570" y="3494">olsons</text><polyline points="553.3,3520.0,517.86,3520.0,517.86,3560.0,553.3,3560.0" style="fill:none;stroke:black;stroke-width:2"></polyline><polyline points="588.73,3510.0,553.3,3510.0,553.3,3530.0,588.73,3530.0" style="fill:none;stroke:black;stroke-width:2"></polyline><text font-family="sans-serif" x="593" y="3514">blowzy</text><text font-family="sans-serif" x="593" y="3534">clowns</text><polyline points="588.73,3550.0,553.3,3550.0,553.3,3570.0,588.73,3570.0" style="fill:none;stroke:black;stroke-width:2"></polyline><text font-family="sans-serif" x="593" y="3554">bimbos</text><text font-family="sans-serif" x="593" y="3574">boobys</text><polyline points="517.86,3640.0,470.62,3640.0,470.62,3760.0,517.86,3760.0" style="fill:none;stroke:black;stroke-width:2"></polyline><polyline points="541.49,3620.0,517.86,3620.0,517.86,3680.0,541.49,3680.0" style="fill:none;stroke:black;stroke-width:2"></polyline><polyline points="588.73,3600.0,541.49,3600.0,541.49,3640.0,588.73,3640.0" style="fill:none;stroke:black;stroke-width:2"></polyline><polyline points="624.16,3590.0,588.73,3590.0,588.73,3610.0,624.16,3610.0" style="fill:none;stroke:black;stroke-width:2"></polyline><text font-family="sans-serif" x="629" y="3594">roosts</text><text font-family="sans-serif" x="629" y="3614">roachs</text><polyline points="624.16,3630.0,588.73,3630.0,588.73,3650.0,624.16,3650.0" style="fill:none;stroke:black;stroke-width:2"></polyline><text font-family="sans-serif" x="629" y="3634">cootie</text><text font-family="sans-serif" x="629" y="3654">goatee</text><polyline points="576.92,3670.0,541.49,3670.0,541.49,3690.0,576.92,3690.0" style="fill:none;stroke:black;stroke-width:2"></polyline><text font-family="sans-serif" x="581" y="3674">oppose</text><text font-family="sans-serif" x="581" y="3694">poppas</text><polyline points="553.3,3750.0,517.86,3750.0,517.86,3810.0,553.3,3810.0" style="fill:none;stroke:black;stroke-width:2"></polyline><polyline points="588.73,3730.0,553.3,3730.0,553.3,3780.0,588.73,3780.0" style="fill:none;stroke:black;stroke-width:2"></polyline><polyline points="624.16,3720.0,588.73,3720.0,588.73,3750.0,624.16,3750.0" style="fill:none;stroke:black;stroke-width:2"></polyline><polyline points="647.78,3710.0,624.16,3710.0,624.16,3730.0,647.78,3730.0" style="fill:none;stroke:black;stroke-width:2"></polyline><text font-family="sans-serif" x="652" y="3714">solder</text><text font-family="sans-serif" x="652" y="3734">border</text><text font-family="sans-serif" x="629" y="3754">golden</text><polyline points="612.35,3770.0,588.73,3770.0,588.73,3790.0,612.35,3790.0" style="fill:none;stroke:black;stroke-width:2"></polyline><text font-family="sans-serif" x="617" y="3774">hooker</text><text font-family="sans-serif" x="617" y="3794">honked</text><text font-family="sans-serif" x="558" y="3814">pompom</text><polyline points="423.38,3850.0,376.14,3850.0,376.14,3890.0,423.38,3890.0" style="fill:none;stroke:black;stroke-width:2"></polyline><polyline points="458.81,3840.0,423.38,3840.0,423.38,3870.0,458.81,3870.0" style="fill:none;stroke:black;stroke-width:2"></polyline><polyline points="494.24,3830.0,458.81,3830.0,458.81,3850.0,494.24,3850.0" style="fill:none;stroke:black;stroke-width:2"></polyline><text font-family="sans-serif" x="499" y="3834">trevor</text><text font-family="sans-serif" x="499" y="3854">orator</text><text font-family="sans-serif" x="463" y="3874">liquor</text><text font-family="sans-serif" x="428" y="3894">immure</text><polyline points="387.95,3920.0,340.7,3920.0,340.7,3950.0,387.95,3950.0" style="fill:none;stroke:black;stroke-width:2"></polyline><polyline points="423.38,3910.0,387.95,3910.0,387.95,3930.0,423.38,3930.0" style="fill:none;stroke:black;stroke-width:2"></polyline><text font-family="sans-serif" x="428" y="3914">nisans</text><text font-family="sans-serif" x="428" y="3934">assays</text><text font-family="sans-serif" x="392" y="3954">cacaos</text><text font-family="sans-serif" x="239" y="3974">fazing</text><text font-family="sans-serif" x="85" y="3994">motive</text></g></svg>